<svg xmlns="http://www.w3.org/2000/svg" width="84.867" height="84.867" viewBox="0 0 84.867 84.867">
  <path id="facebook-square-brands-white" d="M75.774,32H9.093A9.093,9.093,0,0,0,0,41.093v66.681a9.093,9.093,0,0,0,9.093,9.093h26V88.014H23.158V74.434H35.093V64.083c0-11.773,7.009-18.277,17.744-18.277a72.3,72.3,0,0,1,10.517.917V58.278H57.431c-5.837,0-7.657,3.622-7.657,7.337v8.818H62.8L60.72,88.014H49.774v28.853h26a9.093,9.093,0,0,0,9.093-9.093V41.093A9.093,9.093,0,0,0,75.774,32Z" transform="translate(0 -32)" fill="#fff"/>
</svg>
