<svg xmlns="http://www.w3.org/2000/svg" width="123.836" height="99.877" viewBox="0 0 123.836 99.877">
  <path id="git-brands" d="M52.314,75.86H33.136C23.461,73.323,1.575,73.983,1.575,93.949c0,7.278,3.628,12.391,8.465,14.754-6.071,5.563-8.949,8.187-8.949,11.9a6.548,6.548,0,0,0,4.327,6.484C1.966,130.333,0,132.689,0,137.115c0,7.766,6.784,12.292,24.581,12.292,17.112,0,27.038-6.39,27.038-17.7,0-14.188-10.923-13.666-36.674-15.238l3.248-5.212c6.6,1.833,28.71,2.419,28.71-16.42A15.649,15.649,0,0,0,43.275,84.9l9.048-.687ZM36.974,134.368c0,7.754-25.37,7.764-25.37.588,0-1.969,1.275-3.628,2.557-5.21C32.957,131.027,36.974,130.561,36.974,134.368ZM24.685,101.817c-12.771,0-12.2-17.211.29-17.211C36.957,84.606,37.267,101.817,24.685,101.817Zm32.241,24.31v-7.764c6.47-.885,6.588-.484,6.588-2.661V86.8c0-2.056-.5-1.785-6.588-3.933L58.007,74.9H78.365v40.806c0,1.575.1,1.77,1.575,1.969l5.014.687v7.764ZM69.612,67.036c-5.6,0-8.85-3.248-8.85-8.855s3.246-8.652,8.85-8.652c5.7,0,8.949,3.052,8.949,8.652S75.315,67.036,69.612,67.036Zm54.224,55.279a39.332,39.332,0,0,1-16.031,3.933c-11.7,0-16.125-4.716-16.125-15.833V84.654c0-1.311.254-.982-7.67-.982V74.919C92.664,73.934,96.1,69.6,97.185,58.89h9.343c0,15.922-.324,14.95.788,14.95h13.859v9.832H106.528v23.5c0,1.674-1.19,12.434,14.65,6.492Z" transform="translate(0 -49.53)" fill="#6e00ff"/>
</svg>
