<svg xmlns="http://www.w3.org/2000/svg" width="84.867" height="84.867" viewBox="0 0 84.867 84.867">
  <path id="instagram-square-brands-white" d="M42.434,64.329A10.1,10.1,0,1,0,52.542,74.435,10.1,10.1,0,0,0,42.434,64.329Zm23.624-7.767A10.229,10.229,0,0,0,60.3,50.8c-3.978-1.57-13.45-1.218-17.864-1.218S28.557,49.218,24.568,50.8a10.23,10.23,0,0,0-5.761,5.761c-1.569,3.978-1.218,13.459-1.218,17.869s-.35,13.88,1.226,17.871a10.229,10.229,0,0,0,5.761,5.761c3.978,1.57,13.45,1.218,17.866,1.218s13.874.366,17.864-1.218A10.229,10.229,0,0,0,66.066,92.3c1.582-3.978,1.218-13.459,1.218-17.869s.364-13.878-1.218-17.869ZM42.434,89.967a15.515,15.515,0,1,1,10.99-4.544,15.534,15.534,0,0,1-10.99,4.544ZM58.608,61.874a1.5,1.5,0,1,1,.008.008ZM75.774,32H9.093A9.093,9.093,0,0,0,0,41.093v66.681a9.093,9.093,0,0,0,9.093,9.093H75.774a9.093,9.093,0,0,0,9.093-9.093V41.093A9.093,9.093,0,0,0,75.774,32ZM72.531,86.936c-.244,4.855-1.353,9.157-4.9,12.692s-7.843,4.666-12.692,4.9c-5,.282-20,.282-25.005,0-4.855-.244-9.142-1.354-12.692-4.9s-4.666-7.846-4.9-12.692c-.282-5-.282-20.006,0-25.005.244-4.855,1.339-9.157,4.9-12.692s7.856-4.653,12.692-4.884c5-.282,20-.282,25.005,0,4.855.244,9.155,1.354,12.692,4.9s4.666,7.846,4.9,12.7C72.813,66.939,72.813,81.928,72.531,86.936Z" transform="translate(0 -32)" fill="#fff"/>
</svg>
