<svg xmlns="http://www.w3.org/2000/svg" width="152" height="156.49" viewBox="0 0 152 156.49">
  <path id="laravel-brands" d="M159.257,35.4a1.749,1.749,0,0,0-.086-.208,2.6,2.6,0,0,0-.162-.382,1.833,1.833,0,0,0-.165-.217,2.862,2.862,0,0,0-.22-.287c-.07-.067-.159-.122-.235-.183a2.7,2.7,0,0,0-.275-.208L128.692,16.977a2.445,2.445,0,0,0-2.445,0L96.82,33.925h0a2.466,2.466,0,0,0-.269.211,2.348,2.348,0,0,0-.238.183,2.515,2.515,0,0,0-.22.284c-.052.073-.119.138-.165.217a2.964,2.964,0,0,0-.159.382c-.024.07-.064.134-.086.208a2.469,2.469,0,0,0-.086.636V68.212L71.078,82.33V19.389a2.384,2.384,0,0,0-.086-.639c-.018-.073-.061-.138-.086-.208a2.551,2.551,0,0,0-.159-.379c-.043-.079-.113-.144-.165-.22a2.861,2.861,0,0,0-.22-.287,2.894,2.894,0,0,0-.238-.183,3,3,0,0,0-.269-.208h0L40.425.326a2.445,2.445,0,0,0-2.445,0L8.556,17.265h0a1.993,1.993,0,0,0-.269.211,2.387,2.387,0,0,0-.241.183,2.491,2.491,0,0,0-.217.284c-.055.076-.122.141-.168.22a2.408,2.408,0,0,0-.156.379,1.974,1.974,0,0,0-.089.2,2.5,2.5,0,0,0-.086.642V120.16a2.445,2.445,0,0,0,1.223,2.124l58.836,33.878a2.7,2.7,0,0,0,.407.165c.064.024.125.061.193.079a2.421,2.421,0,0,0,1.253,0c.061-.015.113-.049.168-.067a2.629,2.629,0,0,0,.428-.177l58.855-33.878a2.445,2.445,0,0,0,1.223-2.124V87.988l28.193-16.233a2.445,2.445,0,0,0,1.223-2.14V36.04A2.638,2.638,0,0,0,159.257,35.4ZM39.2,5.28h0l24.51,14.105L39.2,33.5,14.69,19.389ZM66.173,23.619V85.151L51.951,93.339l-10.3,5.929V37.746l14.222-8.188Zm0,126.164-53.94-31.041V23.631l10.3,5.923,14.219,8.191v65.768a2.12,2.12,0,0,0,.037.275,2.445,2.445,0,0,0,.049.361h0a1.81,1.81,0,0,0,.116.275,1.95,1.95,0,0,0,.128.306h0a2.611,2.611,0,0,0,.183.238,2.327,2.327,0,0,0,.2.257h0c.07.067.159.116.235.177a2.731,2.731,0,0,0,.263.2h0l28.177,15.949Zm2.445-32.45-24.47-13.852,25.7-14.8,28.2-16.233,24.491,14.1L104.568,96.808Zm56.4,1.4L71.072,149.8V121.584l39.954-22.8,13.989-7.993Zm0-36.411-10.3-5.908L100.5,68.222V40.28l10.3,5.93L125.015,54.4ZM127.46,50.14,102.948,36.028,127.46,21.92l24.507,14.105Zm2.445,32.178V54.4l14.252-8.194,10.294-5.929V68.212h0Z" transform="translate(-7.33 0.002)" fill="#6e00ff"/>
</svg>
