<svg xmlns="http://www.w3.org/2000/svg" width="84.867" height="84.867" viewBox="0 0 84.867 84.867">
  <path id="linkedin-brands-white" d="M78.805,32H6.043A6.088,6.088,0,0,0,0,38.119v72.63a6.088,6.088,0,0,0,6.043,6.119H78.805a6.1,6.1,0,0,0,6.062-6.119V38.119A6.1,6.1,0,0,0,78.805,32ZM25.65,104.743H13.071v-40.5h12.6v40.5ZM19.36,58.71a7.293,7.293,0,1,1,7.293-7.293A7.3,7.3,0,0,1,19.36,58.71ZM72.8,104.743H60.222v-19.7c0-4.7-.095-10.741-6.536-10.741-6.554,0-7.558,5.115-7.558,10.4v20.042H33.549v-40.5H45.616v5.532h.17c1.686-3.183,5.8-6.536,11.915-6.536,12.73,0,15.1,8.392,15.1,19.3Z" transform="translate(0 -32)" fill="#fff"/>
</svg>
